{
.appVersion = "1075";
copyright = "(C) 2009 Mohammed Rahman";
customParameters = (
{
name = vendorID;
value = "M54 ";
},
{
name = panose;
value = (
2,
0,
5,
0,
0,
0,
0,
0,
0,
0
);
},
{
name = unicodeRanges;
value = (
0,
1,
2,
5,
7,
31,
33,
35,
38,
60,
62
);
},
{
name = codePageRanges;
value = (
1252,
1254,
1258,
857,
850
);
},
{
name = glyphOrder;
value = (
.notdef,
uni0000,
uni000D,
space,
exclam,
quotedbl,
numbersign,
dollar,
percent,
ampersand,
quotesingle,
parenleft,
parenright,
asterisk,
plus,
comma,
hyphen,
period,
slash,
zero,
one,
two,
three,
four,
five,
six,
seven,
eight,
nine,
colon,
semicolon,
less,
equal,
greater,
question,
at,
A,
B,
C,
D,
E,
F,
G,
H,
I,
J,
K,
L,
M,
N,
O,
P,
Q,
R,
S,
T,
U,
V,
W,
X,
Y,
Z,
bracketleft,
backslash,
bracketright,
asciicircum,
underscore,
grave,
a,
b,
c,
d,
e,
f,
g,
h,
i,
j,
k,
l,
m,
n,
o,
p,
q,
r,
s,
t,
u,
v,
w,
x,
y,
z,
braceleft,
bar,
braceright,
asciitilde,
g98
);
}
);
date = "2010-01-16 13:02:16 +0000";
designer = "Mohammed Rahman";
disablesNiceNames = 1;
familyName = "Face Off M54";
fontMaster = (
{
ascender = 2000;
capHeight = 700;
customParameters = (
{
name = typoAscender;
value = 2000;
},
{
name = typoDescender;
value = -434;
},
{
name = typoLineGap;
value = 307;
},
{
name = winAscent;
value = 2000;
},
{
name = winDescent;
value = 434;
},
{
name = hheaAscender;
value = 2000;
},
{
name = hheaDescender;
value = -434;
},
{
name = underlinePosition;
value = -292;
},
{
name = underlineThickness;
value = 150;
}
);
descender = -434;
id = "2031F728-6E23-44FB-AB31-A80AC350EB39";
weightValue = 400;
widthValue = 5;
xHeight = 500;
}
);
glyphs = (
{
glyphname = period;
lastChange = "2018-07-08 03:30:50 +0000";
layers = (
{
layerId = "2031F728-6E23-44FB-AB31-A80AC350EB39";
paths = (
{
closed = 1;
nodes = (
"360 290 LINE",
"70 290 LINE",
"70 0 LINE",
"360 0 LINE"
);
}
);
width = 430;
}
);
note = period;
unicode = 002E;
},
{
glyphname = zero;
lastChange = "2018-07-08 03:47:09 +0000";
layers = (
{
layerId = "2031F728-6E23-44FB-AB31-A80AC350EB39";
paths = (
{
closed = 1;
nodes = (
"864 0 OFFCURVE",
"1001 134 OFFCURVE",
"1001 290 CURVE SMOOTH",
"1001 1281 LINE SMOOTH",
"1001 1437 OFFCURVE",
"864 1571 OFFCURVE",
"709 1571 CURVE SMOOTH",
"403 1571 LINE SMOOTH",
"247 1571 OFFCURVE",
"111 1436 OFFCURVE",
"111 1281 CURVE SMOOTH",
"111 288 LINE SMOOTH",
"111 132 OFFCURVE",
"245 0 OFFCURVE",
"401 0 CURVE SMOOTH",
"709 0 LINE SMOOTH"
);
},
{
closed = 1;
nodes = (
"401 1281 LINE",
"711 1281 LINE",
"711 290 LINE",
"401 290 LINE"
);
}
);
width = 1112;
}
);
note = zero;
unicode = 0030;
changeCount = 6;
},
{
glyphname = one;
lastChange = "2018-07-08 03:32:27 +0000";
layers = (
{
layerId = "2031F728-6E23-44FB-AB31-A80AC350EB39";
paths = (
{
closed = 1;
nodes = (
"549 1571 LINE",
"370 1504 LINE",
"370 1214 LINE",
"453 1214 LINE",
"453 0 LINE",
"743 0 LINE",
"743 1571 LINE"
);
}
);
width = 1112;
}
);
note = one;
unicode = 0031;
changeCount = 11;
},
{
glyphname = two;
lastChange = "2018-07-08 03:44:58 +0000";
layers = (
{
layerId = "2031F728-6E23-44FB-AB31-A80AC350EB39";
paths = (
{
closed = 1;
nodes = (
"857 649 OFFCURVE",
"995 785 OFFCURVE",
"995 941 CURVE",
"995 1290 LINE",
"995 1339 OFFCURVE",
"986 1380 OFFCURVE",
"967 1414 CURVE",
"930 1481 OFFCURVE",
"841 1580 OFFCURVE",
"704 1580 CURVE",
"409 1580 LINE",
"253 1580 OFFCURVE",
"117 1445 OFFCURVE",
"117 1290 CURVE",
"117 1172 LINE",
"410 1172 LINE",
"410 1290 LINE",
"705 1290 LINE",
"705 940 LINE",
"409 940 LINE",
"253 940 OFFCURVE",
"117 805 OFFCURVE",
"117 650 CURVE",
"117 9 LINE",
"995 9 LINE",
"995 299 LINE",
"407 299 LINE",
"407 649 LINE",
"702 649 LINE"
);
}
);
width = 1112;
}
);
note = two;
unicode = 0032;
changeCount = 38;
},
{
glyphname = three;
lastChange = "2018-07-08 03:45:30 +0000";
layers = (
{
layerId = "2031F728-6E23-44FB-AB31-A80AC350EB39";
paths = (
{
closed = 1;
nodes = (
"858 0 OFFCURVE",
"996 133 OFFCURVE",
"996 289 CURVE SMOOTH",
"996 550 LINE SMOOTH",
"996 659 OFFCURVE",
"946 709 OFFCURVE",
"885 785 CURVE",
"946 862 OFFCURVE",
"996 912 OFFCURVE",
"996 1021 CURVE SMOOTH",
"996 1282 LINE SMOOTH",
"996 1435 OFFCURVE",
"858 1571 OFFCURVE",
"705 1571 CURVE SMOOTH",
"409 1571 LINE SMOOTH",
"254 1571 OFFCURVE",
"117 1436 OFFCURVE",
"117 1281 CURVE SMOOTH",
"117 1163 LINE",
"407 1163 LINE",
"407 1281 LINE",
"705 1281 LINE",
"705 931 LINE",
"387 931 LINE",
"387 640 LINE",
"705 640 LINE",
"705 290 LINE",
"407 290 LINE",
"407 417 LINE",
"117 417 LINE",
"117 288 LINE SMOOTH",
"117 133 OFFCURVE",
"252 0 OFFCURVE",
"407 0 CURVE SMOOTH",
"705 0 LINE SMOOTH"
);
}
);
width = 1112;
}
);
note = three;
unicode = 0033;
changeCount = 12;
},
{
glyphname = four;
lastChange = "2018-07-08 03:30:50 +0000";
layers = (
{
layerId = "2031F728-6E23-44FB-AB31-A80AC350EB39";
paths = (
{
closed = 1;
nodes = (
"671 640 LINE",
"475 640 LINE",
"671 984 LINE"
);
},
{
closed = 1;
nodes = (
"671 48 LINE",
"670 48 LINE",
"670 0 LINE",
"961 0 LINE",
"961 350 LINE",
"1042 350 LINE",
"1042 640 LINE",
"961 640 LINE",
"961 1571 LINE",
"671 1571 LINE",
"70 514 LINE",
"254 350 LINE",
"671 350 LINE"
);
}
);
width = 1112;
}
);
note = four;
unicode = 0034;
},
{
glyphname = five;
lastChange = "2018-07-08 03:47:42 +0000";
layers = (
{
layerId = "2031F728-6E23-44FB-AB31-A80AC350EB39";
paths = (
{
closed = 1;
nodes = (
"852 2 OFFCURVE",
"990 135 OFFCURVE",
"990 291 CURVE SMOOTH",
"990 750 LINE SMOOTH",
"990 905 OFFCURVE",
"853 1038 OFFCURVE",
"700 1038 CURVE SMOOTH",
"413 1038 LINE",
"413 1281 LINE",
"978 1281 LINE",
"978 1571 LINE",
"122 1571 LINE",
"122 1036 LINE SMOOTH",
"122 881 OFFCURVE",
"257 748 OFFCURVE",
"412 748 CURVE SMOOTH",
"699 748 LINE",
"699 290 LINE",
"412 290 LINE",
"412 417 LINE",
"122 417 LINE",
"122 290 LINE SMOOTH",
"122 134 OFFCURVE",
"257 2 OFFCURVE",
"412 2 CURVE SMOOTH",
"699 2 LINE SMOOTH"
);
}
);
width = 1112;
}
);
note = five;
unicode = 0035;
changeCount = 12;
},
{
glyphname = six;
lastChange = "2018-07-08 03:46:00 +0000";
layers = (
{
layerId = "2031F728-6E23-44FB-AB31-A80AC350EB39";
paths = (
{
closed = 1;
nodes = (
"856 0 OFFCURVE",
"994 133 OFFCURVE",
"994 289 CURVE SMOOTH",
"994 643 LINE SMOOTH",
"994 726 OFFCURVE",
"963 795 OFFCURVE",
"900 851 CURVE SMOOTH",
"887 862 LINE SMOOTH",
"834 908 OFFCURVE",
"773 931 OFFCURVE",
"704 931 CURVE SMOOTH",
"408 931 LINE",
"408 1281 LINE",
"700 1281 LINE",
"700 1163 LINE",
"991 1163 LINE",
"991 1282 LINE SMOOTH",
"991 1437 OFFCURVE",
"853 1571 OFFCURVE",
"700 1571 CURVE SMOOTH",
"408 1571 LINE SMOOTH",
"253 1571 OFFCURVE",
"118 1437 OFFCURVE",
"118 1282 CURVE SMOOTH",
"118 289 LINE SMOOTH",
"118 133 OFFCURVE",
"254 0 OFFCURVE",
"409 0 CURVE SMOOTH",
"704 0 LINE SMOOTH"
);
},
{
closed = 1;
nodes = (
"408 640 LINE",
"699 640 LINE",
"699 290 LINE",
"408 290 LINE"
);
}
);
width = 1112;
}
);
note = six;
unicode = 0036;
changeCount = 9;
},
{
glyphname = seven;
lastChange = "2018-07-08 03:46:14 +0000";
layers = (
{
layerId = "2031F728-6E23-44FB-AB31-A80AC350EB39";
paths = (
{
closed = 1;
nodes = (
"108 1571 LINE",
"108 1163 LINE",
"398 1163 LINE",
"398 1281 LINE",
"684 1281 LINE",
"293 0 LINE",
"597 0 LINE",
"1004 1397 LINE",
"918 1571 LINE"
);
}
);
width = 1112;
}
);
note = seven;
unicode = 0037;
changeCount = 6;
},
{
glyphname = eight;
lastChange = "2018-07-08 03:48:10 +0000";
layers = (
{
layerId = "2031F728-6E23-44FB-AB31-A80AC350EB39";
paths = (
{
closed = 1;
nodes = (
"407 1281 LINE",
"705 1281 LINE",
"705 931 LINE",
"407 931 LINE"
);
},
{
closed = 1;
nodes = (
"407 640 LINE",
"705 640 LINE",
"705 290 LINE",
"407 290 LINE"
);
},
{
closed = 1;
nodes = (
"858 0 OFFCURVE",
"996 133 OFFCURVE",
"996 289 CURVE SMOOTH",
"996 550 LINE SMOOTH",
"996 658 OFFCURVE",
"947 709 OFFCURVE",
"883 785 CURVE",
"947 862 OFFCURVE",
"996 911 OFFCURVE",
"996 1022 CURVE SMOOTH",
"996 1282 LINE SMOOTH",
"996 1435 OFFCURVE",
"858 1571 OFFCURVE",
"705 1571 CURVE SMOOTH",
"408 1571 LINE SMOOTH",
"253 1571 OFFCURVE",
"117 1436 OFFCURVE",
"117 1281 CURVE SMOOTH",
"117 1021 LINE SMOOTH",
"117 912 OFFCURVE",
"164 862 OFFCURVE",
"228 785 CURVE",
"164 709 OFFCURVE",
"117 659 OFFCURVE",
"117 550 CURVE SMOOTH",
"117 289 LINE SMOOTH",
"117 133 OFFCURVE",
"253 0 OFFCURVE",
"408 0 CURVE SMOOTH",
"705 0 LINE SMOOTH"
);
}
);
width = 1112;
}
);
note = eight;
unicode = 0038;
changeCount = 17;
},
{
glyphname = nine;
lastChange = "2018-07-08 03:46:51 +0000";
layers = (
{
layerId = "2031F728-6E23-44FB-AB31-A80AC350EB39";
paths = (
{
closed = 1;
nodes = (
"858 0 OFFCURVE",
"996 133 OFFCURVE",
"996 289 CURVE SMOOTH",
"996 1280 LINE SMOOTH",
"996 1435 OFFCURVE",
"856 1571 OFFCURVE",
"703 1571 CURVE SMOOTH",
"407 1571 LINE SMOOTH",
"252 1571 OFFCURVE",
"116 1435 OFFCURVE",
"116 1282 CURVE SMOOTH",
"116 928 LINE SMOOTH",
"116 773 OFFCURVE",
"250 640 OFFCURVE",
"405 640 CURVE SMOOTH",
"706 640 LINE",
"706 290 LINE",
"407 290 LINE",
"407 417 LINE",
"124 417 LINE",
"124 289 LINE SMOOTH",
"124 133 OFFCURVE",
"260 0 OFFCURVE",
"415 0 CURVE SMOOTH",
"705 0 LINE SMOOTH"
);
},
{
closed = 1;
nodes = (
"407 1281 LINE",
"706 1281 LINE",
"706 931 LINE",
"407 931 LINE"
);
}
);
width = 1112;
}
);
note = nine;
unicode = 0039;
changeCount = 6;
},
{
glyphname = A;
lastChange = "2018-07-08 03:30:50 +0000";
layers = (
{
layerId = "2031F728-6E23-44FB-AB31-A80AC350EB39";
paths = (
{
closed = 1;
nodes = (
"360 0 LINE",
"360 495 LINE",
"674 495 LINE",
"674 0 LINE",
"964 0 LINE",
"964 1281 LINE SMOOTH",
"964 1436 OFFCURVE",
"825 1571 OFFCURVE",
"672 1571 CURVE SMOOTH",
"361 1571 LINE SMOOTH",
"206 1571 OFFCURVE",
"70 1436 OFFCURVE",
"70 1281 CURVE SMOOTH",
"70 0 LINE"
);
},
{
closed = 1;
nodes = (
"674 1281 LINE",
"674 785 LINE",
"360 785 LINE",
"360 1281 LINE"
);
}
);
width = 1034;
}
);
note = A;
unicode = 0041;
},
{
glyphname = B;
lastChange = "2018-07-08 03:30:50 +0000";
layers = (
{
layerId = "2031F728-6E23-44FB-AB31-A80AC350EB39";
paths = (
{
closed = 1;
nodes = (
"658 1281 LINE",
"658 931 LINE",
"360 931 LINE",
"360 1281 LINE"
);
},
{
closed = 1;
nodes = (
"658 640 LINE",
"658 290 LINE",
"360 290 LINE",
"360 640 LINE"
);
},
{
closed = 1;
nodes = (
"811 0 OFFCURVE",
"949 133 OFFCURVE",
"949 289 CURVE SMOOTH",
"949 551 LINE SMOOTH",
"949 659 OFFCURVE",
"900 708 OFFCURVE",
"837 787 CURVE",
"900 863 OFFCURVE",
"949 911 OFFCURVE",
"949 1022 CURVE SMOOTH",
"949 1282 LINE SMOOTH",
"949 1435 OFFCURVE",
"811 1571 OFFCURVE",
"658 1571 CURVE SMOOTH",
"70 1571 LINE",
"70 0 LINE",
"658 0 LINE SMOOTH"
);
}
);
width = 1019;
}
);
note = B;
unicode = 0042;
},
{
glyphname = C;
lastChange = "2018-07-08 03:30:50 +0000";
layers = (
{
layerId = "2031F728-6E23-44FB-AB31-A80AC350EB39";
paths = (
{
closed = 1;
nodes = (
"822 0 OFFCURVE",
"962 134 OFFCURVE",
"962 290 CURVE SMOOTH",
"962 417 LINE",
"672 417 LINE",
"672 290 LINE",
"360 290 LINE",
"360 1281 LINE",
"672 1281 LINE",
"672 1163 LINE",
"962 1163 LINE",
"962 1280 LINE SMOOTH",
"962 1435 OFFCURVE",
"821 1571 OFFCURVE",
"668 1571 CURVE SMOOTH",
"361 1571 LINE SMOOTH",
"206 1571 OFFCURVE",
"70 1435 OFFCURVE",
"70 1282 CURVE SMOOTH",
"70 289 LINE SMOOTH",
"70 133 OFFCURVE",
"205 0 OFFCURVE",
"360 0 CURVE SMOOTH",
"669 0 LINE SMOOTH"
);
}
);
width = 1032;
}
);
note = C;
unicode = 0043;
},
{
glyphname = D;
lastChange = "2018-07-08 03:30:50 +0000";
layers = (
{
layerId = "2031F728-6E23-44FB-AB31-A80AC350EB39";
paths = (
{
closed = 1;
nodes = (
"972 1435 OFFCURVE",
"832 1571 OFFCURVE",
"679 1571 CURVE SMOOTH",
"70 1571 LINE",
"70 0 LINE",
"680 0 LINE SMOOTH",
"832 0 OFFCURVE",
"972 135 OFFCURVE",
"972 291 CURVE SMOOTH",
"972 1280 LINE SMOOTH"
);
},
{
closed = 1;
nodes = (
"361 1281 LINE",
"682 1281 LINE",
"682 290 LINE",
"361 290 LINE"
);
}
);
width = 1042;
}
);
note = D;
unicode = 0044;
},
{
glyphname = E;
lastChange = "2018-07-08 03:30:50 +0000";
layers = (
{
layerId = "2031F728-6E23-44FB-AB31-A80AC350EB39";
paths = (
{
closed = 1;
nodes = (
"360 290 LINE",
"360 640 LINE",
"757 640 LINE",
"757 931 LINE",
"360 931 LINE",
"360 1281 LINE",
"821 1281 LINE",
"821 1571 LINE",
"70 1571 LINE",
"70 0 LINE",
"827 0 LINE",
"827 290 LINE"
);
}
);
width = 897;
}
);
note = E;
unicode = 0045;
},
{
glyphname = F;
lastChange = "2018-07-08 03:30:50 +0000";
layers = (
{
layerId = "2031F728-6E23-44FB-AB31-A80AC350EB39";
paths = (
{
closed = 1;
nodes = (
"70 1571 LINE",
"70 0 LINE",
"361 0 LINE",
"361 640 LINE",
"757 640 LINE",
"757 931 LINE",
"361 931 LINE",
"361 1281 LINE",
"821 1281 LINE",
"821 1571 LINE"
);
}
);
width = 891;
}
);
note = F;
unicode = 0046;
},
{
glyphname = G;
lastChange = "2018-07-08 03:30:50 +0000";
layers = (
{
layerId = "2031F728-6E23-44FB-AB31-A80AC350EB39";
paths = (
{
closed = 1;
nodes = (
"826 0 OFFCURVE",
"965 134 OFFCURVE",
"965 290 CURVE SMOOTH",
"965 931 LINE",
"477 931 LINE",
"477 640 LINE",
"675 640 LINE",
"675 290 LINE",
"361 290 LINE",
"361 1281 LINE",
"675 1281 LINE",
"675 1160 LINE",
"965 1160 LINE",
"965 1281 LINE SMOOTH",
"965 1436 OFFCURVE",
"826 1571 OFFCURVE",
"673 1571 CURVE SMOOTH",
"362 1571 LINE SMOOTH",
"207 1571 OFFCURVE",
"70 1436 OFFCURVE",
"70 1281 CURVE SMOOTH",
"70 288 LINE SMOOTH",
"70 133 OFFCURVE",
"205 0 OFFCURVE",
"360 0 CURVE SMOOTH",
"673 0 LINE SMOOTH"
);
}
);
width = 1035;
}
);
note = G;
unicode = 0047;
},
{
glyphname = H;
lastChange = "2018-07-08 03:30:50 +0000";
layers = (
{
layerId = "2031F728-6E23-44FB-AB31-A80AC350EB39";
paths = (
{
closed = 1;
nodes = (
"689 1571 LINE",
"689 931 LINE",
"360 931 LINE",
"360 1571 LINE",
"70 1571 LINE",
"70 0 LINE",
"360 0 LINE",
"360 640 LINE",
"689 640 LINE",
"689 0 LINE",
"979 0 LINE",
"979 1571 LINE"
);
}
);
width = 1049;
}
);
note = H;
unicode = 0048;
},
{
glyphname = I;
lastChange = "2018-07-08 03:30:50 +0000";
layers = (
{
layerId = "2031F728-6E23-44FB-AB31-A80AC350EB39";
paths = (
{
closed = 1;
nodes = (
"70 1571 LINE",
"70 0 LINE",
"361 0 LINE",
"361 1571 LINE"
);
}
);
width = 431;
}
);
note = I;
unicode = 0049;
},
{
glyphname = J;
lastChange = "2018-07-08 03:30:50 +0000";
layers = (
{
layerId = "2031F728-6E23-44FB-AB31-A80AC350EB39";
paths = (
{
closed = 1;
nodes = (
"778 0 OFFCURVE",
"914 134 OFFCURVE",
"914 290 CURVE SMOOTH",
"914 1571 LINE",
"624 1571 LINE",
"624 290 LINE",
"360 290 LINE",
"360 417 LINE",
"70 417 LINE",
"70 289 LINE SMOOTH",
"70 133 OFFCURVE",
"206 0 OFFCURVE",
"361 0 CURVE SMOOTH",
"623 0 LINE SMOOTH"
);
}
);
width = 984;
}
);
note = J;
unicode = 004A;
},
{
glyphname = K;
lastChange = "2018-07-08 03:30:50 +0000";
layers = (
{
layerId = "2031F728-6E23-44FB-AB31-A80AC350EB39";
paths = (
{
closed = 1;
nodes = (
"360 931 LINE",
"360 1571 LINE",
"70 1571 LINE",
"70 0 LINE",
"360 0 LINE",
"360 640 LINE",
"672 0 LINE",
"995 0 LINE",
"607 785 LINE",
"995 1571 LINE",
"672 1571 LINE"
);
}
);
width = 1065;
}
);
note = K;
unicode = 004B;
},
{
glyphname = L;
lastChange = "2018-07-08 03:30:50 +0000";
layers = (
{
layerId = "2031F728-6E23-44FB-AB31-A80AC350EB39";
paths = (
{
closed = 1;
nodes = (
"361 290 LINE",
"361 1571 LINE",
"70 1571 LINE",
"70 0 LINE",
"789 0 LINE",
"789 290 LINE"
);
}
);
width = 859;
}
);
note = L;
unicode = 004C;
},
{
glyphname = M;
lastChange = "2018-07-08 03:30:50 +0000";
layers = (
{
layerId = "2031F728-6E23-44FB-AB31-A80AC350EB39";
paths = (
{
closed = 1;
nodes = (
"865 1571 LINE",
"612 1031 LINE",
"360 1571 LINE",
"70 1571 LINE",
"70 0 LINE",
"360 0 LINE",
"360 885 LINE",
"612 345 LINE",
"865 885 LINE",
"865 0 LINE",
"1156 0 LINE",
"1156 1571 LINE"
);
}
);
width = 1226;
}
);
note = M;
unicode = 004D;
},
{
glyphname = N;
lastChange = "2018-07-08 03:30:50 +0000";
layers = (
{
layerId = "2031F728-6E23-44FB-AB31-A80AC350EB39";
paths = (
{
closed = 1;
nodes = (
"987 2 LINE",
"987 1571 LINE",
"699 1571 LINE",
"699 747 LINE",
"381 1571 LINE",
"70 1571 LINE",
"70 0 LINE",
"359 0 LINE",
"359 823 LINE",
"676 0 LINE",
"988 0 LINE"
);
}
);
width = 1058;
}
);
note = N;
unicode = 004E;
},
{
glyphname = O;
lastChange = "2018-07-08 03:30:50 +0000";
layers = (
{
layerId = "2031F728-6E23-44FB-AB31-A80AC350EB39";
paths = (
{
closed = 1;
nodes = (
"844 0 OFFCURVE",
"982 133 OFFCURVE",
"982 289 CURVE SMOOTH",
"982 1281 LINE SMOOTH",
"982 1436 OFFCURVE",
"843 1571 OFFCURVE",
"690 1571 CURVE SMOOTH",
"360 1571 LINE SMOOTH",
"205 1571 OFFCURVE",
"70 1437 OFFCURVE",
"70 1282 CURVE SMOOTH",
"70 288 LINE SMOOTH",
"70 133 OFFCURVE",
"205 0 OFFCURVE",
"360 0 CURVE SMOOTH",
"691 0 LINE SMOOTH"
);
},
{
closed = 1;
nodes = (
"360 1281 LINE",
"691 1281 LINE",
"691 290 LINE",
"360 290 LINE"
);
}
);
width = 1052;
}
);
note = O;
unicode = 004F;
},
{
glyphname = P;
lastChange = "2018-07-08 03:30:50 +0000";
layers = (
{
layerId = "2031F728-6E23-44FB-AB31-A80AC350EB39";
paths = (
{
closed = 1;
nodes = (
"805 533 OFFCURVE",
"945 668 OFFCURVE",
"945 824 CURVE SMOOTH",
"945 1280 LINE SMOOTH",
"945 1435 OFFCURVE",
"806 1571 OFFCURVE",
"653 1571 CURVE SMOOTH",
"70 1571 LINE",
"70 0 LINE",
"360 0 LINE",
"360 533 LINE",
"652 533 LINE SMOOTH"
);
},
{
closed = 1;
nodes = (
"360 1281 LINE",
"655 1281 LINE",
"655 823 LINE",
"360 823 LINE"
);
}
);
width = 1015;
}
);
note = P;
unicode = 0050;
},
{
glyphname = Q;
lastChange = "2018-07-08 03:30:50 +0000";
layers = (
{
layerId = "2031F728-6E23-44FB-AB31-A80AC350EB39";
paths = (
{
closed = 1;
nodes = (
"360 1281 LINE",
"691 1281 LINE",
"691 290 LINE",
"360 290 LINE"
);
},
{
closed = 1;
nodes = (
"847 1 OFFCURVE",
"982 134 OFFCURVE",
"982 289 CURVE SMOOTH",
"982 1281 LINE SMOOTH",
"982 1436 OFFCURVE",
"843 1571 OFFCURVE",
"690 1571 CURVE SMOOTH",
"361 1571 LINE SMOOTH",
"206 1571 OFFCURVE",
"70 1436 OFFCURVE",
"70 1281 CURVE SMOOTH",
"70 288 LINE SMOOTH",
"70 133 OFFCURVE",
"205 0 OFFCURVE",
"360 0 CURVE SMOOTH",
"367 0 LINE",
"418 -62 LINE",
"738 -62 LINE",
"694 1 LINE"
);
}
);
width = 1052;
}
);
note = Q;
unicode = 0051;
},
{
glyphname = R;
lastChange = "2018-07-08 03:30:50 +0000";
layers = (
{
layerId = "2031F728-6E23-44FB-AB31-A80AC350EB39";
paths = (
{
closed = 1;
nodes = (
"749 659 LINE",
"860 700 OFFCURVE",
"946 809 OFFCURVE",
"946 932 CURVE SMOOTH",
"946 1280 LINE SMOOTH",
"946 1435 OFFCURVE",
"806 1571 OFFCURVE",
"653 1571 CURVE SMOOTH",
"70 1571 LINE",
"70 0 LINE",
"361 0 LINE",
"361 640 LINE",
"447 640 LINE",
"694 0 LINE",
"1005 0 LINE"
);
},
{
closed = 1;
nodes = (
"361 1281 LINE",
"655 1281 LINE",
"655 931 LINE",
"361 931 LINE"
);
}
);
width = 1075;
}
);
note = R;
unicode = 0052;
},
{
glyphname = S;
lastChange = "2018-07-08 03:30:50 +0000";
layers = (
{
layerId = "2031F728-6E23-44FB-AB31-A80AC350EB39";
paths = (
{
closed = 1;
nodes = (
"206 1571 OFFCURVE",
"70 1437 OFFCURVE",
"70 1282 CURVE SMOOTH",
"70 1066 LINE SMOOTH",
"70 971 OFFCURVE",
"109 896 OFFCURVE",
"186 841 CURVE SMOOTH",
"653 509 LINE",
"653 290 LINE",
"364 290 LINE",
"364 417 LINE",
"70 417 LINE",
"70 289 LINE SMOOTH",
"70 133 OFFCURVE",
"205 0 OFFCURVE",
"360 0 CURVE SMOOTH",
"652 0 LINE SMOOTH",
"805 0 OFFCURVE",
"944 134 OFFCURVE",
"944 290 CURVE SMOOTH",
"944 506 LINE SMOOTH",
"944 599 OFFCURVE",
"906 674 OFFCURVE",
"830 729 CURVE SMOOTH",
"360 1071 LINE",
"360 1281 LINE",
"648 1281 LINE",
"648 1154 LINE",
"944 1154 LINE",
"944 1281 LINE SMOOTH",
"944 1436 OFFCURVE",
"805 1571 OFFCURVE",
"652 1571 CURVE SMOOTH",
"361 1571 LINE SMOOTH"
);
}
);
width = 1014;
}
);
note = S;
unicode = 0053;
},
{
glyphname = T;
lastChange = "2018-07-08 03:30:50 +0000";
layers = (
{
layerId = "2031F728-6E23-44FB-AB31-A80AC350EB39";
paths = (
{
closed = 1;
nodes = (
"70 1571 LINE",
"70 1281 LINE",
"358 1281 LINE",
"358 0 LINE",
"649 0 LINE",
"649 1281 LINE",
"937 1281 LINE",
"937 1571 LINE"
);
}
);
width = 1007;
}
);
note = T;
unicode = 0054;
},
{
glyphname = U;
lastChange = "2018-07-08 03:30:50 +0000";
layers = (
{
layerId = "2031F728-6E23-44FB-AB31-A80AC350EB39";
paths = (
{
closed = 1;
nodes = (
"836 0 OFFCURVE",
"975 135 OFFCURVE",
"975 291 CURVE SMOOTH",
"975 1571 LINE",
"685 1571 LINE",
"685 290 LINE",
"360 290 LINE",
"360 1571 LINE",
"70 1571 LINE",
"70 289 LINE SMOOTH",
"70 133 OFFCURVE",
"206 0 OFFCURVE",
"361 0 CURVE SMOOTH",
"681 0 LINE SMOOTH"
);
}
);
width = 1045;
}
);
note = U;
unicode = 0055;
},
{
glyphname = V;
lastChange = "2018-07-08 03:30:50 +0000";
layers = (
{
layerId = "2031F728-6E23-44FB-AB31-A80AC350EB39";
paths = (
{
closed = 1;
nodes = (
"482 1053 OFFCURVE",
"449 1203 OFFCURVE",
"368 1571 CURVE",
"70 1571 LINE",
"421 0 LINE",
"719 0 LINE",
"1069 1571 LINE",
"772 1571 LINE",
"731 1388 OFFCURVE",
"698 1239 OFFCURVE",
"673 1126 CURVE SMOOTH",
"648 1013 OFFCURVE",
"613 859 OFFCURVE",
"570 665 CURVE"
);
}
);
width = 1139;
}
);
note = V;
unicode = 0056;
},
{
glyphname = W;
lastChange = "2018-07-08 03:30:50 +0000";
layers = (
{
layerId = "2031F728-6E23-44FB-AB31-A80AC350EB39";
paths = (
{
closed = 1;
nodes = (
"1043 767 LINE",
"885 1571 LINE",
"645 1571 LINE",
"486 768 LINE",
"367 1571 LINE",
"70 1571 LINE",
"332 0 LINE",
"628 0 LINE",
"765 679 LINE",
"901 0 LINE",
"1197 0 LINE",
"1460 1571 LINE",
"1162 1571 LINE"
);
}
);
width = 1530;
}
);
note = W;
unicode = 0057;
},
{
glyphname = X;
lastChange = "2018-07-08 03:30:50 +0000";
layers = (
{
layerId = "2031F728-6E23-44FB-AB31-A80AC350EB39";
paths = (
{
closed = 1;
nodes = (
"1057 1571 LINE",
"741 1571 LINE",
"572 1177 LINE",
"403 1571 LINE",
"88 1571 LINE",
"414 808 LINE",
"70 0 LINE",
"385 0 LINE",
"572 437 LINE",
"758 0 LINE",
"1074 0 LINE",
"730 808 LINE"
);
}
);
width = 1144;
}
);
note = X;
unicode = 0058;
},
{
glyphname = Y;
lastChange = "2018-07-08 03:30:50 +0000";
layers = (
{
layerId = "2031F728-6E23-44FB-AB31-A80AC350EB39";
paths = (
{
closed = 1;
nodes = (
"761 1571 LINE",
"566 986 LINE",
"368 1571 LINE",
"70 1571 LINE",
"418 581 LINE",
"418 0 LINE",
"712 0 LINE",
"712 579 LINE",
"1069 1571 LINE"
);
}
);
width = 1139;
}
);
note = Y;
unicode = 0059;
},
{
glyphname = Z;
lastChange = "2018-07-08 03:30:50 +0000";
layers = (
{
layerId = "2031F728-6E23-44FB-AB31-A80AC350EB39";
paths = (
{
closed = 1;
nodes = (
"448 290 LINE",
"902 1413 LINE",
"902 1571 LINE",
"110 1571 LINE",
"110 1282 LINE",
"536 1282 LINE",
"70 131 LINE",
"70 0 LINE",
"905 0 LINE",
"905 290 LINE"
);
}
);
width = 975;
}
);
note = Z;
unicode = 005A;
},
{
glyphname = a;
lastChange = "2018-07-08 03:30:50 +0000";
layers = (
{
layerId = "2031F728-6E23-44FB-AB31-A80AC350EB39";
paths = (
{
closed = 1;
nodes = (
"792 1571 LINE",
"384 1571 LINE",
"70 0 LINE",
"366 0 LINE",
"436 350 LINE",
"740 350 LINE",
"810 0 LINE",
"1106 0 LINE"
);
},
{
closed = 1;
nodes = (
"588 1110 LINE",
"682 640 LINE",
"494 640 LINE"
);
}
);
width = 1176;
}
);
note = a;
unicode = 0061;
},
{
glyphname = b;
lastChange = "2018-07-08 03:30:50 +0000";
layers = (
{
layerId = "2031F728-6E23-44FB-AB31-A80AC350EB39";
paths = (
{
closed = 1;
nodes = (
"658 1281 LINE",
"658 931 LINE",
"360 931 LINE",
"360 1281 LINE"
);
},
{
closed = 1;
nodes = (
"658 640 LINE",
"658 290 LINE",
"360 290 LINE",
"360 640 LINE"
);
},
{
closed = 1;
nodes = (
"811 0 OFFCURVE",
"949 133 OFFCURVE",
"949 289 CURVE SMOOTH",
"949 551 LINE SMOOTH",
"949 659 OFFCURVE",
"900 708 OFFCURVE",
"837 787 CURVE",
"900 863 OFFCURVE",
"949 911 OFFCURVE",
"949 1022 CURVE SMOOTH",
"949 1282 LINE SMOOTH",
"949 1435 OFFCURVE",
"811 1571 OFFCURVE",
"658 1571 CURVE SMOOTH",
"70 1571 LINE",
"70 0 LINE",
"658 0 LINE SMOOTH"
);
}
);
width = 1019;
}
);
note = b;
unicode = 0062;
},
{
glyphname = c;
lastChange = "2018-07-08 03:30:50 +0000";
layers = (
{
layerId = "2031F728-6E23-44FB-AB31-A80AC350EB39";
paths = (
{
closed = 1;
nodes = (
"822 0 OFFCURVE",
"962 134 OFFCURVE",
"962 290 CURVE SMOOTH",
"962 417 LINE",
"672 417 LINE",
"672 290 LINE",
"360 290 LINE",
"360 1281 LINE",
"672 1281 LINE",
"672 1163 LINE",
"962 1163 LINE",
"962 1280 LINE SMOOTH",
"962 1435 OFFCURVE",
"821 1571 OFFCURVE",
"668 1571 CURVE SMOOTH",
"361 1571 LINE SMOOTH",
"206 1571 OFFCURVE",
"70 1435 OFFCURVE",
"70 1282 CURVE SMOOTH",
"70 289 LINE SMOOTH",
"70 133 OFFCURVE",
"205 0 OFFCURVE",
"360 0 CURVE SMOOTH",
"669 0 LINE SMOOTH"
);
}
);
width = 1032;
}
);
note = c;
unicode = 0063;
},
{
glyphname = d;
lastChange = "2018-07-08 03:30:50 +0000";
layers = (
{
layerId = "2031F728-6E23-44FB-AB31-A80AC350EB39";
paths = (
{
closed = 1;
nodes = (
"972 1435 OFFCURVE",
"832 1571 OFFCURVE",
"679 1571 CURVE SMOOTH",
"70 1571 LINE",
"70 0 LINE",
"680 0 LINE SMOOTH",
"832 0 OFFCURVE",
"972 135 OFFCURVE",
"972 291 CURVE SMOOTH",
"972 1280 LINE SMOOTH"
);
},
{
closed = 1;
nodes = (
"361 1281 LINE",
"682 1281 LINE",
"682 290 LINE",
"361 290 LINE"
);
}
);
width = 1042;
}
);
note = d;
unicode = 0064;
},
{
glyphname = e;
lastChange = "2018-07-08 03:30:50 +0000";
layers = (
{
layerId = "2031F728-6E23-44FB-AB31-A80AC350EB39";
paths = (
{
closed = 1;
nodes = (
"360 290 LINE",
"360 640 LINE",
"757 640 LINE",
"757 931 LINE",
"360 931 LINE",
"360 1281 LINE",
"821 1281 LINE",
"821 1571 LINE",
"70 1571 LINE",
"70 0 LINE",
"827 0 LINE",
"827 290 LINE"
);
}
);
width = 897;
}
);
note = e;
unicode = 0065;
},
{
glyphname = f;
lastChange = "2018-07-08 03:30:50 +0000";
layers = (
{
layerId = "2031F728-6E23-44FB-AB31-A80AC350EB39";
paths = (
{
closed = 1;
nodes = (
"70 1571 LINE",
"70 0 LINE",
"361 0 LINE",
"361 640 LINE",
"757 640 LINE",
"757 931 LINE",
"361 931 LINE",
"361 1281 LINE",
"821 1281 LINE",
"821 1571 LINE"
);
}
);
width = 891;
}
);
note = f;
unicode = 0066;
},
{
glyphname = g;
lastChange = "2018-07-08 03:30:50 +0000";
layers = (
{
layerId = "2031F728-6E23-44FB-AB31-A80AC350EB39";
paths = (
{
closed = 1;
nodes = (
"826 0 OFFCURVE",
"965 134 OFFCURVE",
"965 290 CURVE SMOOTH",
"965 931 LINE",
"477 931 LINE",
"477 640 LINE",
"675 640 LINE",
"675 290 LINE",
"361 290 LINE",
"361 1281 LINE",
"675 1281 LINE",
"675 1160 LINE",
"965 1160 LINE",
"965 1281 LINE SMOOTH",
"965 1436 OFFCURVE",
"826 1571 OFFCURVE",
"673 1571 CURVE SMOOTH",
"362 1571 LINE SMOOTH",
"207 1571 OFFCURVE",
"70 1436 OFFCURVE",
"70 1281 CURVE SMOOTH",
"70 288 LINE SMOOTH",
"70 133 OFFCURVE",
"205 0 OFFCURVE",
"360 0 CURVE SMOOTH",
"673 0 LINE SMOOTH"
);
}
);
width = 1035;
}
);
note = g;
unicode = 0067;
},
{
glyphname = h;
lastChange = "2018-07-08 03:30:50 +0000";
layers = (
{
layerId = "2031F728-6E23-44FB-AB31-A80AC350EB39";
paths = (
{
closed = 1;
nodes = (
"689 1571 LINE",
"689 931 LINE",
"360 931 LINE",
"360 1571 LINE",
"70 1571 LINE",
"70 0 LINE",
"360 0 LINE",
"360 640 LINE",
"689 640 LINE",
"689 0 LINE",
"979 0 LINE",
"979 1571 LINE"
);
}
);
width = 1049;
}
);
note = h;
unicode = 0068;
},
{
glyphname = i;
lastChange = "2018-07-08 03:30:50 +0000";
layers = (
{
layerId = "2031F728-6E23-44FB-AB31-A80AC350EB39";
paths = (
{
closed = 1;
nodes = (
"70 1571 LINE",
"70 0 LINE",
"361 0 LINE",
"361 1571 LINE"
);
}
);
width = 431;
}
);
note = i;
unicode = 0069;
},
{
glyphname = j;
lastChange = "2018-07-08 03:30:50 +0000";
layers = (
{
layerId = "2031F728-6E23-44FB-AB31-A80AC350EB39";
paths = (
{
closed = 1;
nodes = (
"778 0 OFFCURVE",
"914 134 OFFCURVE",
"914 290 CURVE SMOOTH",
"914 1571 LINE",
"624 1571 LINE",
"624 290 LINE",
"360 290 LINE",
"360 417 LINE",
"70 417 LINE",
"70 289 LINE SMOOTH",
"70 133 OFFCURVE",
"206 0 OFFCURVE",
"361 0 CURVE SMOOTH",
"623 0 LINE SMOOTH"
);
}
);
width = 984;
}
);
note = j;
unicode = 006A;
},
{
glyphname = k;
lastChange = "2018-07-08 03:30:50 +0000";
layers = (
{
layerId = "2031F728-6E23-44FB-AB31-A80AC350EB39";
paths = (
{
closed = 1;
nodes = (
"360 931 LINE",
"360 1571 LINE",
"70 1571 LINE",
"70 0 LINE",
"360 0 LINE",
"360 640 LINE",
"672 0 LINE",
"995 0 LINE",
"607 785 LINE",
"995 1571 LINE",
"672 1571 LINE"
);
}
);
width = 1065;
}
);
note = k;
unicode = 006B;
},
{
glyphname = l;
lastChange = "2018-07-08 03:30:50 +0000";
layers = (
{
layerId = "2031F728-6E23-44FB-AB31-A80AC350EB39";
paths = (
{
closed = 1;
nodes = (
"361 290 LINE",
"361 1571 LINE",
"70 1571 LINE",
"70 0 LINE",
"789 0 LINE",
"789 290 LINE"
);
}
);
width = 859;
}
);
note = l;
unicode = 006C;
},
{
glyphname = m;
lastChange = "2018-07-08 03:30:50 +0000";
layers = (
{
layerId = "2031F728-6E23-44FB-AB31-A80AC350EB39";
paths = (
{
closed = 1;
nodes = (
"865 1571 LINE",
"612 1031 LINE",
"360 1571 LINE",
"70 1571 LINE",
"70 0 LINE",
"360 0 LINE",
"360 885 LINE",
"612 345 LINE",
"865 885 LINE",
"865 0 LINE",
"1156 0 LINE",
"1156 1571 LINE"
);
}
);
width = 1226;
}
);
note = m;
unicode = 006D;
},
{
glyphname = n;
lastChange = "2018-07-08 03:30:50 +0000";
layers = (
{
layerId = "2031F728-6E23-44FB-AB31-A80AC350EB39";
paths = (
{
closed = 1;
nodes = (
"987 2 LINE",
"987 1571 LINE",
"699 1571 LINE",
"699 747 LINE",
"381 1571 LINE",
"70 1571 LINE",
"70 0 LINE",
"359 0 LINE",
"359 823 LINE",
"676 0 LINE",
"988 0 LINE"
);
}
);
width = 1058;
}
);
note = n;
unicode = 006E;
},
{
glyphname = o;
lastChange = "2018-07-08 03:30:50 +0000";
layers = (
{
layerId = "2031F728-6E23-44FB-AB31-A80AC350EB39";
paths = (
{
closed = 1;
nodes = (
"844 0 OFFCURVE",
"982 133 OFFCURVE",
"982 289 CURVE SMOOTH",
"982 1281 LINE SMOOTH",
"982 1436 OFFCURVE",
"843 1571 OFFCURVE",
"690 1571 CURVE SMOOTH",
"360 1571 LINE SMOOTH",
"205 1571 OFFCURVE",
"70 1437 OFFCURVE",
"70 1282 CURVE SMOOTH",
"70 288 LINE SMOOTH",
"70 133 OFFCURVE",
"205 0 OFFCURVE",
"360 0 CURVE SMOOTH",
"691 0 LINE SMOOTH"
);
},
{
closed = 1;
nodes = (
"360 1281 LINE",
"691 1281 LINE",
"691 290 LINE",
"360 290 LINE"
);
}
);
width = 1052;
}
);
note = o;
unicode = 006F;
},
{
glyphname = p;
lastChange = "2018-07-08 03:30:50 +0000";
layers = (
{
layerId = "2031F728-6E23-44FB-AB31-A80AC350EB39";
paths = (
{
closed = 1;
nodes = (
"805 533 OFFCURVE",
"945 668 OFFCURVE",
"945 824 CURVE SMOOTH",
"945 1280 LINE SMOOTH",
"945 1435 OFFCURVE",
"806 1571 OFFCURVE",
"653 1571 CURVE SMOOTH",
"70 1571 LINE",
"70 0 LINE",
"360 0 LINE",
"360 533 LINE",
"652 533 LINE SMOOTH"
);
},
{
closed = 1;
nodes = (
"360 1281 LINE",
"655 1281 LINE",
"655 823 LINE",
"360 823 LINE"
);
}
);
width = 1015;
}
);
note = p;
unicode = 0070;
},
{
glyphname = q;
lastChange = "2018-07-08 03:30:50 +0000";
layers = (
{
layerId = "2031F728-6E23-44FB-AB31-A80AC350EB39";
paths = (
{
closed = 1;
nodes = (
"360 1281 LINE",
"691 1281 LINE",
"691 290 LINE",
"360 290 LINE"
);
},
{
closed = 1;
nodes = (
"847 1 OFFCURVE",
"982 134 OFFCURVE",
"982 289 CURVE SMOOTH",
"982 1281 LINE SMOOTH",
"982 1436 OFFCURVE",
"843 1571 OFFCURVE",
"690 1571 CURVE SMOOTH",
"361 1571 LINE SMOOTH",
"206 1571 OFFCURVE",
"70 1436 OFFCURVE",
"70 1281 CURVE SMOOTH",
"70 288 LINE SMOOTH",
"70 133 OFFCURVE",
"205 0 OFFCURVE",
"360 0 CURVE SMOOTH",
"367 0 LINE",
"418 -62 LINE",
"738 -62 LINE",
"694 1 LINE"
);
}
);
width = 1052;
}
);
note = q;
unicode = 0071;
},
{
glyphname = r;
lastChange = "2018-07-08 03:30:50 +0000";
layers = (
{
layerId = "2031F728-6E23-44FB-AB31-A80AC350EB39";
paths = (
{
closed = 1;
nodes = (
"749 659 LINE",
"860 700 OFFCURVE",
"946 809 OFFCURVE",
"946 932 CURVE SMOOTH",
"946 1280 LINE SMOOTH",
"946 1435 OFFCURVE",
"806 1571 OFFCURVE",
"653 1571 CURVE SMOOTH",
"70 1571 LINE",
"70 0 LINE",
"361 0 LINE",
"361 640 LINE",
"447 640 LINE",
"694 0 LINE",
"1005 0 LINE"
);
},
{
closed = 1;
nodes = (
"361 1281 LINE",
"655 1281 LINE",
"655 931 LINE",
"361 931 LINE"
);
}
);
width = 1075;
}
);
note = r;
unicode = 0072;
},
{
glyphname = s;
lastChange = "2018-07-08 03:30:50 +0000";
layers = (
{
layerId = "2031F728-6E23-44FB-AB31-A80AC350EB39";
paths = (
{
closed = 1;
nodes = (
"808 0 OFFCURVE",
"943 133 OFFCURVE",
"943 289 CURVE SMOOTH",
"943 642 LINE SMOOTH",
"943 795 OFFCURVE",
"806 931 OFFCURVE",
"653 931 CURVE SMOOTH",
"360 931 LINE",
"360 1281 LINE",
"653 1281 LINE",
"653 1163 LINE",
"943 1163 LINE",
"943 1282 LINE SMOOTH",
"943 1437 OFFCURVE",
"806 1571 OFFCURVE",
"653 1571 CURVE SMOOTH",
"361 1571 LINE SMOOTH",
"206 1571 OFFCURVE",
"70 1436 OFFCURVE",
"70 1281 CURVE SMOOTH",
"70 930 LINE SMOOTH",
"70 774 OFFCURVE",
"206 640 OFFCURVE",
"361 640 CURVE SMOOTH",
"653 640 LINE",
"653 290 LINE",
"360 290 LINE",
"360 417 LINE",
"70 417 LINE",
"70 290 LINE SMOOTH",
"70 134 OFFCURVE",
"206 0 OFFCURVE",
"361 0 CURVE SMOOTH",
"653 0 LINE SMOOTH"
);
}
);
width = 1013;
}
);
note = s;
unicode = 0073;
},
{
glyphname = t;
lastChange = "2018-07-08 03:30:50 +0000";
layers = (
{
layerId = "2031F728-6E23-44FB-AB31-A80AC350EB39";
paths = (
{
closed = 1;
nodes = (
"70 1571 LINE",
"70 1281 LINE",
"358 1281 LINE",
"358 0 LINE",
"649 0 LINE",
"649 1281 LINE",
"937 1281 LINE",
"937 1571 LINE"
);
}
);
width = 1007;
}
);
note = t;
unicode = 0074;
},
{
glyphname = u;
lastChange = "2018-07-08 03:30:50 +0000";
layers = (
{
layerId = "2031F728-6E23-44FB-AB31-A80AC350EB39";
paths = (
{
closed = 1;
nodes = (
"836 0 OFFCURVE",
"975 135 OFFCURVE",
"975 291 CURVE SMOOTH",
"975 1571 LINE",
"685 1571 LINE",
"685 290 LINE",
"360 290 LINE",
"360 1571 LINE",
"70 1571 LINE",
"70 289 LINE SMOOTH",
"70 133 OFFCURVE",
"206 0 OFFCURVE",
"361 0 CURVE SMOOTH",
"681 0 LINE SMOOTH"
);
}
);
width = 1045;
}
);
note = u;
unicode = 0075;
},
{
glyphname = v;
lastChange = "2018-07-08 03:30:50 +0000";
layers = (
{
layerId = "2031F728-6E23-44FB-AB31-A80AC350EB39";
paths = (
{
closed = 1;
nodes = (
"482 1053 OFFCURVE",
"449 1203 OFFCURVE",
"368 1571 CURVE",
"70 1571 LINE",
"421 0 LINE",
"719 0 LINE",
"1069 1571 LINE",
"772 1571 LINE",
"731 1388 OFFCURVE",
"698 1239 OFFCURVE",
"673 1126 CURVE SMOOTH",
"648 1013 OFFCURVE",
"613 859 OFFCURVE",
"570 665 CURVE"
);
}
);
width = 1139;
}
);
note = v;
unicode = 0076;
},
{
glyphname = w;
lastChange = "2018-07-08 03:30:50 +0000";
layers = (
{
layerId = "2031F728-6E23-44FB-AB31-A80AC350EB39";
paths = (
{
closed = 1;
nodes = (
"1043 767 LINE",
"885 1571 LINE",
"645 1571 LINE",
"486 768 LINE",
"367 1571 LINE",
"70 1571 LINE",
"332 0 LINE",
"628 0 LINE",
"765 679 LINE",
"901 0 LINE",
"1197 0 LINE",
"1460 1571 LINE",
"1162 1571 LINE"
);
}
);
width = 1530;
}
);
note = w;
unicode = 0077;
},
{
glyphname = x;
lastChange = "2018-07-08 03:30:50 +0000";
layers = (
{
layerId = "2031F728-6E23-44FB-AB31-A80AC350EB39";
paths = (
{
closed = 1;
nodes = (
"1057 1571 LINE",
"741 1571 LINE",
"572 1177 LINE",
"403 1571 LINE",
"88 1571 LINE",
"414 808 LINE",
"70 0 LINE",
"385 0 LINE",
"572 437 LINE",
"758 0 LINE",
"1074 0 LINE",
"730 808 LINE"
);
}
);
width = 1144;
}
);
note = x;
unicode = 0078;
},
{
glyphname = y;
lastChange = "2018-07-08 03:30:50 +0000";
layers = (
{
layerId = "2031F728-6E23-44FB-AB31-A80AC350EB39";
paths = (
{
closed = 1;
nodes = (
"761 1571 LINE",
"566 986 LINE",
"368 1571 LINE",
"70 1571 LINE",
"418 581 LINE",
"418 0 LINE",
"712 0 LINE",
"712 579 LINE",
"1069 1571 LINE"
);
}
);
width = 1139;
}
);
note = y;
unicode = 0079;
},
{
glyphname = z;
lastChange = "2018-07-08 03:30:50 +0000";
layers = (
{
layerId = "2031F728-6E23-44FB-AB31-A80AC350EB39";
paths = (
{
closed = 1;
nodes = (
"448 290 LINE",
"902 1413 LINE",
"902 1571 LINE",
"110 1571 LINE",
"110 1282 LINE",
"536 1282 LINE",
"70 131 LINE",
"70 0 LINE",
"905 0 LINE",
"905 290 LINE"
);
}
);
width = 975;
}
);
note = z;
unicode = 007A;
},
{
glyphname = braceleft;
lastChange = "2018-07-08 03:30:50 +0000";
layers = (
{
layerId = "2031F728-6E23-44FB-AB31-A80AC350EB39";
paths = (
{
closed = 1;
nodes = (
"923 968 OFFCURVE",
"950 1034 OFFCURVE",
"950 1110 CURVE SMOOTH",
"950 1281 LINE SMOOTH",
"950 1436 OFFCURVE",
"812 1571 OFFCURVE",
"659 1571 CURVE SMOOTH",
"362 1571 LINE SMOOTH",
"207 1571 OFFCURVE",
"70 1436 OFFCURVE",
"70 1281 CURVE SMOOTH",
"70 1163 LINE",
"364 1163 LINE",
"364 1281 LINE",
"660 1281 LINE",
"660 1116 LINE",
"153 617 LINE SMOOTH",
"98 562 OFFCURVE",
"70 497 OFFCURVE",
"70 420 CURVE SMOOTH",
"70 0 LINE",
"950 0 LINE",
"950 290 LINE",
"361 290 LINE",
"361 415 LINE",
"868 913 LINE SMOOTH"
);
}
);
width = 1020;
}
);
note = braceleft;
unicode = 007B;
},
{
glyphname = braceright;
lastChange = "2018-07-08 03:30:50 +0000";
layers = (
{
layerId = "2031F728-6E23-44FB-AB31-A80AC350EB39";
paths = (
{
closed = 1;
nodes = (
"800 0 OFFCURVE",
"938 133 OFFCURVE",
"938 289 CURVE SMOOTH",
"938 788 LINE SMOOTH",
"938 943 OFFCURVE",
"801 1076 OFFCURVE",
"648 1076 CURVE SMOOTH",
"360 1076 LINE",
"360 1281 LINE",
"926 1281 LINE",
"926 1571 LINE",
"70 1571 LINE",
"70 785 LINE",
"648 785 LINE",
"648 290 LINE",
"360 290 LINE",
"360 417 LINE",
"70 417 LINE",
"70 288 LINE SMOOTH",
"70 133 OFFCURVE",
"205 0 OFFCURVE",
"360 0 CURVE SMOOTH",
"647 0 LINE SMOOTH"
);
}
);
width = 1008;
}
);
note = braceright;
unicode = 007D;
},
